<?xml version="1.0" encoding="UTF-8" standalone="no"?>
<!-- Created with Inkscape (http://www.inkscape.org/) -->

<svg
   xmlns:dc="http://purl.org/dc/elements/1.1/"
   xmlns:cc="http://creativecommons.org/ns#"
   xmlns:rdf="http://www.w3.org/1999/02/22-rdf-syntax-ns#"
   xmlns:svg="http://www.w3.org/2000/svg"
   xmlns="http://www.w3.org/2000/svg"
   xmlns:sodipodi="http://sodipodi.sourceforge.net/DTD/sodipodi-0.dtd"
   xmlns:inkscape="http://www.inkscape.org/namespaces/inkscape"
   height="30mm"
   width="230mm"
   viewBox="0 0 230 30"
   version="1.1"
   id="svg4157"
   inkscape:version="0.92.0 unknown"
   sodipodi:docname="logo.svg">
  <defs
     id="defs4161" />
  <sodipodi:namedview
     pagecolor="#ffffff"
     bordercolor="#666666"
     borderopacity="1"
     objecttolerance="10"
     gridtolerance="10"
     guidetolerance="10"
     inkscape:pageopacity="0"
     inkscape:pageshadow="2"
     inkscape:window-width="1280"
     inkscape:window-height="722"
     id="namedview4159"
     showgrid="false"
     inkscape:zoom="0.5946522"
     inkscape:cx="431.28355"
     inkscape:cy="115.40261"
     inkscape:window-x="0"
     inkscape:window-y="27"
     inkscape:window-maximized="1"
     inkscape:current-layer="svg4157" />
  <metadata
     id="metadata4155">
    <rdf:RDF>
      <cc:Work
         rdf:about="">
        <dc:format>image/svg+xml</dc:format>
        <dc:type
           rdf:resource="http://purl.org/dc/dcmitype/StillImage" />
        <dc:title></dc:title>
      </cc:Work>
    </rdf:RDF>
  </metadata>
  <g
     id="g186"
     transform="matrix(1.261497,0,0,-1.261497,84.932578,8.939864)"
     style="fill:#3565ad;fill-opacity:1">
    <path
       d="m 0,0 c -0.153,0.46 0.153,0.766 0.498,0.766 h 0.728 c 0.269,0 0.498,-0.153 0.575,-0.421 L 5.212,-10.23 8.554,0.345 C 8.631,0.613 8.861,0.766 9.129,0.766 H 9.857 C 10.202,0.766 10.508,0.46 10.355,0 L 5.787,-14.56 c -0.077,-0.229 -0.307,-0.382 -0.575,-0.382 -0.268,0 -0.498,0.153 -0.575,0.382 z"
       style="fill:#3565ad;fill-opacity:1;fill-rule:nonzero;stroke:none"
       id="path188"
       inkscape:connector-curvature="0" />
  </g>
  <g
     id="g190"
     transform="matrix(1.261497,0,0,-1.261497,104.60588,17.785733)"
     style="fill:#3565ad;fill-opacity:1">
    <path
       d="m 0,0 c 0,-3.218 2.682,-6.053 6.053,-6.053 3.104,0 6.054,2.337 6.054,6.053 0,3.296 -2.72,6.054 -6.054,6.054 C 2.759,6.054 0,3.296 0,0 m 13.831,0 c 0,-4.022 -3.218,-7.777 -7.778,-7.777 -4.559,0 -7.777,3.755 -7.777,7.777 0,4.292 3.486,7.778 7.777,7.778 4.291,0 7.778,-3.486 7.778,-7.778"
       style="fill:#3565ad;fill-opacity:1;fill-rule:nonzero;stroke:none"
       id="path192"
       inkscape:connector-curvature="0" />
  </g>
  <g
     id="g194"
     transform="matrix(1.261497,0,0,-1.261497,129.35191,7.9734311)"
     style="fill:#3565ad;fill-opacity:1">
    <path
       d="m 0,0 c 0.307,0 0.575,-0.268 0.575,-0.575 v -13.87 c 0,-0.344 -0.268,-0.612 -0.575,-0.612 h -0.651 c -0.307,0 -0.575,0.268 -0.575,0.612 v 13.87 c 0,0.307 0.268,0.575 0.575,0.575 z"
       style="fill:#3565ad;fill-opacity:1;fill-rule:nonzero;stroke:none"
       id="path196"
       inkscape:connector-curvature="0" />
  </g>
  <g
     id="g198"
     transform="matrix(1.261497,0,0,-1.261497,163.71647,8.4083953)"
     style="fill:#3565ad;fill-opacity:1">
    <path
       d="M 0,0 C 0.345,0 0.613,-0.268 0.613,-0.613 V -14.1 c 0,-0.344 -0.268,-0.613 -0.613,-0.613 h -0.613 c -0.344,0 -0.613,0.269 -0.613,0.613 v 13.487 c 0,0.345 0.269,0.613 0.613,0.613 z"
       style="fill:#3565ad;fill-opacity:1;fill-rule:nonzero;stroke:none"
       id="path200"
       inkscape:connector-curvature="0" />
  </g>
  <g
     id="g202"
     transform="matrix(1.261497,0,0,-1.261497,180.14924,9.4236481)"
     style="fill:#3565ad;fill-opacity:1">
    <path
       d="m 0,0 c 0,-0.269 -0.191,-0.498 -0.498,-0.498 h -0.498 c -2.873,0 -4.368,-2.758 -4.368,-5.019 v -7.778 c 0,-0.344 -0.306,-0.613 -0.613,-0.613 H -6.59 c -0.345,0 -0.613,0.269 -0.613,0.613 V 0.192 c 0,0.345 0.269,0.613 0.575,0.613 0.268,0 0.46,-0.153 0.575,-0.421 l 0.459,-1.303 c 1.035,1.149 2.491,2.261 4.599,2.261 h 0.498 C -0.191,1.342 0,1.111 0,0.844 Z"
       style="fill:#3565ad;fill-opacity:1;fill-rule:nonzero;stroke:none"
       id="path204"
       inkscape:connector-curvature="0" />
  </g>
  <g
     id="g206"
     transform="matrix(1.261497,0,0,-1.261497,198.90353,15.416011)"
     style="fill:#3565ad;fill-opacity:1">
    <path
       d="m 0,0 c -0.843,2.528 -2.989,4.252 -5.709,4.252 -2.95,0 -4.981,-2.03 -5.709,-4.252 z m 0.651,-5.288 c 0.306,-0.268 0.23,-0.536 0.038,-0.843 -1.264,-1.84 -3.602,-3.372 -6.398,-3.372 -4.292,0 -7.778,3.487 -7.778,7.816 0,4.292 3.486,7.778 7.778,7.778 C -2.031,6.091 1.149,3.486 1.915,0 1.992,-0.384 2.031,-0.728 2.069,-1.112 2.107,-1.763 1.571,-1.84 1.456,-1.84 h -13.104 c 0.077,-3.18 2.72,-5.823 5.939,-5.823 2.184,0 3.908,1.149 4.943,2.604 0.229,0.308 0.536,0.46 0.843,0.23 z"
       style="fill:#3565ad;fill-opacity:1;fill-rule:nonzero;stroke:none"
       id="path208"
       inkscape:connector-curvature="0" />
  </g>
  <g
     id="g210"
     transform="matrix(1.261497,0,0,-1.261497,216.78614,11.356892)"
     style="fill:#3565ad;fill-opacity:1">
    <path
       d="m 0,0 c -0.23,-0.307 -0.613,-0.153 -0.804,-0.038 -0.652,0.421 -1.61,0.881 -2.759,0.881 -2.644,0 -2.759,-1.533 -2.759,-2.223 0,-1.8 2.069,-2.299 3.142,-2.758 2.069,-0.804 4.329,-1.839 4.329,-4.406 0,-2.759 -1.915,-4.329 -4.636,-4.329 -1.915,0 -3.869,1.149 -5.172,2.299 l -0.115,0.115 c -0.23,0.229 -0.191,0.536 0,0.728 l 0.537,0.535 c 0.23,0.23 0.574,0.23 0.766,0.039 l 0.077,-0.076 c 1.034,-0.958 2.605,-1.84 3.908,-1.84 1.341,0 2.797,0.652 2.797,2.529 0,1.762 -2.337,2.376 -3.258,2.758 -2.49,0.997 -4.213,1.648 -4.213,4.406 0,2.568 1.723,4.062 4.597,4.062 1.686,0 2.989,-0.69 3.793,-1.226 L 0.345,1.38 C 0.575,1.226 0.652,0.997 0.499,0.727 Z"
       style="fill:#3565ad;fill-opacity:1;fill-rule:nonzero;stroke:none"
       id="path212"
       inkscape:connector-curvature="0" />
  </g>
  <g
     id="g214"
     transform="matrix(1.261497,0,0,-1.261497,163.32995,2.9473748)"
     style="fill:#3565ad;fill-opacity:1">
    <path
       d="m 0,0 c 0.508,0 0.919,-0.412 0.919,-0.919 0,-0.508 -0.411,-0.92 -0.919,-0.92 -0.508,0 -0.919,0.412 -0.919,0.92 C -0.919,-0.412 -0.508,0 0,0"
       style="fill:#3565ad;fill-opacity:1;fill-rule:nonzero;stroke:none"
       id="path216"
       inkscape:connector-curvature="0" />
  </g>
  <g
     id="g218"
     transform="matrix(1.261497,0,0,-1.261497,145.68867,25.08261)"
     style="fill:#3565ad;fill-opacity:1">
    <path
       d="m 0,0 c -3.142,0 -5.939,2.567 -5.939,5.938 0,3.219 2.491,5.977 5.939,5.977 3.678,0 5.938,-2.95 5.938,-5.977 C 5.938,3.141 3.792,0 0,0 m 7.778,12.605 c 0,0.345 -0.269,0.613 -0.613,0.613 -0.268,0 -0.499,-0.192 -0.575,-0.421 L 5.976,10.957 C 4.789,12.337 2.72,13.754 0,13.754 c -4.291,0 -7.778,-3.486 -7.778,-7.816 0,-4.291 3.487,-7.778 7.778,-7.778 2.49,0 4.75,1.264 5.938,2.797 L 5.94,0.95 C 5.952,0.964 5.965,0.977 5.976,0.991 L 6.59,-0.882 c 0.076,-0.229 0.307,-0.422 0.575,-0.422 0.344,0 0.613,0.269 0.613,0.614 v 3.82 10e-4 z"
       style="fill:#3565ad;fill-opacity:1;fill-rule:nonzero;stroke:none"
       id="path220"
       inkscape:connector-curvature="0" />
  </g>
  <g
     id="g222"
     transform="matrix(1.261497,0,0,-1.261497,29.118653,19.267866)">
    <path
       d="m 0,0 c -2.987,0 -5.766,0.786 -8.036,2.271 -1.543,1.01 -2.779,2.329 -3.697,3.925 0.547,-1.285 1.114,-2.426 1.693,-3.391 0.421,-0.703 0.853,-1.36 1.292,-1.976 0.067,-0.094 0.134,-0.19 0.201,-0.282 0.64,-0.873 1.297,-1.649 1.968,-2.33 0.487,-0.496 0.982,-0.942 1.482,-1.334 1.661,-1.297 3.318,-1.956 4.923,-1.958 h 0.016 c 1.604,0.002 3.259,0.661 4.921,1.958 1.051,0.822 2.075,1.875 3.061,3.147 0.054,0.071 0.108,0.146 0.162,0.218 0.587,0.775 1.161,1.624 1.717,2.552 0.014,0.022 0.028,0.044 0.042,0.066 l 0.001,0.003 0.839,1.379 c 0.002,0.003 0.004,0.006 0.006,0.009 0.02,0.033 0.041,0.066 0.061,0.099 C 8.252,1.57 4.461,0 0,0"
       style="fill:#3565ad;fill-opacity:1;fill-rule:nonzero;stroke:none"
       id="path224"
       inkscape:connector-curvature="0" />
  </g>
  <g
     id="g226"
     transform="matrix(1.261497,0,0,-1.261497,69.203351,14.984958)">
    <path
       d="M 0,0 C -0.375,0.626 -0.758,1.218 -1.147,1.774 -1.262,1.938 -1.377,2.1 -1.494,2.259 -2.598,3.765 -3.752,4.992 -4.943,5.922 -6.604,7.22 -8.261,7.879 -9.865,7.882 H -9.882 C -11.485,7.879 -13.142,7.22 -14.803,5.922 -15.854,5.101 -16.877,4.048 -17.863,2.775 -17.96,2.65 -18.056,2.518 -18.153,2.389 -18.347,2.127 -18.541,1.858 -18.731,1.58 -18.966,1.238 -19.197,0.883 -19.426,0.516 -19.532,0.347 -19.638,0.18 -19.743,0.005 l -0.914,-1.572 c 0.005,0.01 -0.147,-0.247 -0.147,-0.247 -0.078,-0.129 -0.156,-0.255 -0.233,-0.381 2.331,3.15 6.274,4.941 10.954,4.941 2.964,0 5.722,-0.78 7.976,-2.254 C -0.383,-0.637 0.994,-2.154 1.92,-3.933 1.303,-2.423 0.658,-1.098 0,0"
       style="fill:#df444c;fill-opacity:1;fill-rule:nonzero;stroke:none"
       id="path228"
       inkscape:connector-curvature="0" />
  </g>
  <g
     id="g230"
     transform="matrix(1.261497,0,0,-1.261497,76.07094,26.457137)">
    <path
       d="m 0,0 c -0.476,1.671 -0.979,3.215 -1.507,4.623 -0.054,0.142 -0.108,0.281 -0.162,0.421 -0.734,1.898 -1.515,3.541 -2.337,4.912 -3.358,5.602 -7.371,8.69 -11.302,8.696 h -0.019 c -3.905,-0.006 -7.894,-3.058 -11.24,-8.597 -0.02,-0.033 -0.041,-0.066 -0.061,-0.099 -0.002,-0.003 -0.004,-0.006 -0.006,-0.009 l -0.839,-1.379 -0.001,-0.003 c -0.014,-0.022 -0.028,-0.043 -0.042,-0.066 -0.556,-0.928 -1.13,-1.777 -1.717,-2.552 -0.054,-0.072 -0.108,-0.147 -0.162,-0.218 -0.986,-1.272 -2.01,-2.325 -3.061,-3.146 -1.662,-1.298 -3.317,-1.957 -4.921,-1.959 h -0.016 c -1.606,0.002 -3.262,0.661 -4.923,1.959 -0.5,0.391 -0.995,0.838 -1.482,1.333 -0.671,0.681 -1.328,1.457 -1.968,2.33 -0.067,0.092 -0.134,0.188 -0.201,0.282 -0.439,0.616 -0.871,1.273 -1.292,1.976 -0.579,0.965 -1.146,2.106 -1.693,3.391 -0.15,0.352 -0.299,0.713 -0.445,1.087 -0.103,0.245 -0.199,0.494 -0.285,0.747 -0.01,0.025 -0.019,0.051 -0.029,0.077 -0.485,1.309 -0.947,2.732 -1.38,4.251 -0.126,0.446 -0.59,0.704 -1.036,0.577 -0.445,-0.126 -0.703,-0.591 -0.576,-1.035 0.476,-1.672 0.979,-3.215 1.508,-4.623 0.004,-0.011 0.009,-0.021 0.012,-0.032 0.048,-0.131 0.097,-0.261 0.149,-0.389 0.081,-0.211 0.164,-0.416 0.246,-0.62 0.662,-1.637 1.36,-3.073 2.091,-4.293 1.522,-2.538 3.178,-4.557 4.899,-6.01 2.079,-1.755 4.253,-2.682 6.403,-2.685 h 0.019 c 3.839,0.005 7.592,2.609 10.895,7.952 0.077,0.126 0.155,0.252 0.233,0.381 0,0 0.152,0.257 0.147,0.246 l 0.914,1.573 c 0.105,0.174 0.211,0.342 0.317,0.511 0.229,0.367 0.46,0.722 0.695,1.063 0.19,0.279 0.384,0.547 0.578,0.81 0.097,0.129 0.193,0.261 0.29,0.386 0.986,1.272 2.009,2.326 3.06,3.147 1.662,1.297 3.318,1.957 4.921,1.959 h 0.017 c 1.605,-0.002 3.261,-0.662 4.922,-1.96 1.19,-0.929 2.345,-2.156 3.449,-3.663 0.117,-0.158 0.232,-0.32 0.347,-0.485 0.389,-0.556 0.772,-1.147 1.147,-1.773 0.659,-1.099 1.303,-2.423 1.92,-3.933 0.073,-0.179 0.146,-0.36 0.218,-0.544 0.103,-0.247 0.199,-0.494 0.285,-0.748 0.01,-0.025 0.019,-0.051 0.028,-0.076 0.485,-1.309 0.948,-2.733 1.381,-4.252 0.126,-0.445 0.59,-0.704 1.035,-0.577 C -0.131,-0.909 0.126,-0.445 0,0"
       style="fill:#ffc01f;fill-opacity:1;fill-rule:nonzero;stroke:none"
       id="path232"
       inkscape:connector-curvature="0" />
  </g>
</svg>
